<svg width="100" height="100" viewBox="0 0 100 100" fill="none" xmlns="http://www.w3.org/2000/svg">
<path d="M50 100C43.0833 100 36.5833 98.6875 30.5 96.0625C24.4167 93.4375 19.125 89.875 14.625 85.375C10.125 80.875 6.5625 75.5833 3.9375 69.5C1.3125 63.4167 0 56.9167 0 50C0 43.0833 1.3125 36.5833 3.9375 30.5C6.5625 24.4167 10.125 19.125 14.625 14.625C19.125 10.125 24.4167 6.5625 30.5 3.9375C36.5833 1.3125 43.0833 -9.53674e-07 50 -9.53674e-07C56.9167 -9.53674e-07 63.4167 1.3125 69.5 3.9375C75.5833 6.5625 80.875 10.125 85.375 14.625C89.875 19.125 93.4375 24.4167 96.0625 30.5C98.6875 36.5833 100 43.0833 100 50C100 56.9167 98.6875 63.4167 96.0625 69.5C93.4375 75.5833 89.875 80.875 85.375 85.375C80.875 89.875 75.5833 93.4375 69.5 96.0625C63.4167 98.6875 56.9167 100 50 100ZM50 90C61.1667 90 70.625 86.125 78.375 78.375C86.125 70.625 90 61.1667 90 50C90 49.4167 89.9792 48.8125 89.9375 48.1875C89.8958 47.5625 89.875 47.0417 89.875 46.625C89.4583 49.0417 88.3333 51.0417 86.5 52.625C84.6667 54.2083 82.5 55 80 55H70C67.25 55 64.8958 54.0208 62.9375 52.0625C60.9792 50.1042 60 47.75 60 45V40H40V30C40 27.25 40.9792 24.8958 42.9375 22.9375C44.8958 20.9792 47.25 20 50 20H55C55 18.0833 55.5208 16.3958 56.5625 14.9375C57.6042 13.4792 58.875 12.2917 60.375 11.375C58.7083 10.9583 57.0208 10.625 55.3125 10.375C53.6042 10.125 51.8333 10 50 10C38.8333 10 29.375 13.875 21.625 21.625C13.875 29.375 10 38.8333 10 50H35C40.5 50 45.2083 51.9583 49.125 55.875C53.0417 59.7917 55 64.5 55 70V75H40V88.75C41.6667 89.1667 43.3125 89.4792 44.9375 89.6875C46.5625 89.8958 48.25 90 50 90Z" fill="#404040"/>
</svg>
