<svg width="91" height="100" viewBox="0 0 91 100" fill="none" xmlns="http://www.w3.org/2000/svg">
<path d="M75.05 12.35C74.65 12.35 74.25 12.25 73.9 12.05C64.3 7.1 56 5 46.05 5C36.15 5 26.75 7.35 18.2 12.05C17 12.7 15.5 12.25 14.8 11.05C14.15 9.85 14.6 8.3 15.8 7.65C25.1 2.6 35.3 0 46.05 0C56.7 0 66.0001 2.35 76.2001 7.6C77.4501 8.25 77.9 9.75 77.25 10.95C76.8 11.85 75.95 12.35 75.05 12.35ZM3.50005 38.6C3.00005 38.6 2.50005 38.45 2.05005 38.15C0.900047 37.35 0.650047 35.8 1.45005 34.65C6.40005 27.65 12.7 22.15 20.2 18.3C35.9 10.2 56 10.15 71.75 18.25C79.25 22.1 85.55 27.55 90.5 34.5C91.3 35.6 91.05 37.2 89.9 38C88.75 38.8 87.2 38.55 86.4 37.4C81.9 31.1 76.2001 26.15 69.4501 22.7C55.1 15.35 36.75 15.35 22.45 22.75C15.65 26.25 9.95005 31.25 5.45005 37.55C5.05005 38.25 4.30005 38.6 3.50005 38.6ZM34.75 98.95C34.1 98.95 33.45 98.7 33 98.2C28.65 93.85 26.3 91.05 22.95 85C19.5 78.85 17.7 71.35 17.7 63.3C17.7 48.45 30.4 36.35 46 36.35C61.6 36.35 74.3 48.45 74.3 63.3C74.3 64.7 73.2 65.8 71.8 65.8C70.4 65.8 69.3 64.7 69.3 63.3C69.3 51.2 58.85 41.35 46 41.35C33.15 41.35 22.7 51.2 22.7 63.3C22.7 70.5 24.3001 77.15 27.35 82.55C30.5501 88.3 32.75 90.75 36.6 94.65C37.55 95.65 37.55 97.2 36.6 98.2C36.05 98.7 35.4 98.95 34.75 98.95ZM70.6 89.7C64.65 89.7 59.4 88.2 55.1 85.25C47.65 80.2 43.2 72 43.2 63.3C43.2 61.9 44.3 60.8 45.7 60.8C47.1 60.8 48.2 61.9 48.2 63.3C48.2 70.35 51.8 77 57.9 81.1C61.45 83.5 65.6 84.65 70.6 84.65C71.8 84.65 73.8 84.5 75.8 84.15C77.15 83.9 78.4501 84.8 78.7001 86.2C78.9501 87.55 78.05 88.85 76.65 89.1C73.8 89.65 71.3 89.7 70.6 89.7ZM60.55 100C60.35 100 60.1 99.95 59.9 99.9C51.95 97.7 46.75 94.75 41.3 89.4C34.3 82.45 30.4501 73.2 30.4501 63.3C30.4501 55.2 37.35 48.6 45.85 48.6C54.35 48.6 61.25 55.2 61.25 63.3C61.25 68.65 65.9 73 71.65 73C77.4 73 82.05 68.65 82.05 63.3C82.05 44.45 65.8 29.15 45.8 29.15C31.6 29.15 18.6 37.05 12.75 49.3C10.8 53.35 9.80005 58.1 9.80005 63.3C9.80005 67.2 10.15 73.35 13.15 81.35C13.65 82.65 13 84.1 11.7 84.55C10.4 85.05 8.95005 84.35 8.50005 83.1C6.05005 76.55 4.85005 70.05 4.85005 63.3C4.85005 57.3 6.00005 51.85 8.25005 47.1C14.9 33.15 29.65 24.1 45.8 24.1C68.55 24.1 87.05 41.65 87.05 63.25C87.05 71.35 80.15 77.95 71.65 77.95C63.15 77.95 56.25 71.35 56.25 63.25C56.25 57.9 51.6 53.55 45.85 53.55C40.1 53.55 35.4501 57.9 35.4501 63.25C35.4501 71.8 38.75 79.8 44.8 85.8C49.55 90.5 54.1 93.1 61.15 95.05C62.5 95.4 63.25 96.8 62.9 98.1C62.65 99.25 61.6 100 60.55 100Z" fill="#404040"/>
</svg>
