<svg width="28" height="28" viewBox="0 0 28 28" fill="none" xmlns="http://www.w3.org/2000/svg">
<path d="M27.6578 26.0084L19.6954 18.046C21.2378 16.1409 22.1664 13.72 22.1664 11.0834C22.1664 4.97248 17.1941 0.000183105 11.0832 0.000183105C4.97224 0.000183105 0 4.97243 0 11.0834C0 17.1943 4.9723 22.1666 11.0832 22.1666C13.7198 22.1666 16.1407 21.238 18.0458 19.6956L26.0082 27.658C26.2357 27.8855 26.5344 27.9999 26.8331 27.9999C27.1318 27.9999 27.4304 27.8855 27.6579 27.658C28.114 27.2019 28.114 26.4645 27.6578 26.0084ZM11.0832 19.8333C6.25793 19.8333 2.33333 15.9087 2.33333 11.0834C2.33333 6.25806 6.25793 2.33345 11.0832 2.33345C15.9085 2.33345 19.8331 6.25806 19.8331 11.0834C19.8331 15.9087 15.9085 19.8333 11.0832 19.8333Z" fill="#404040"/>
</svg>
