<svg width="100" height="100" viewBox="0 0 100 100" fill="none" xmlns="http://www.w3.org/2000/svg">
<path d="M35 48.75C31.55 48.75 28.75 51.55 28.75 55C28.75 58.45 31.55 61.25 35 61.25C38.45 61.25 41.25 58.45 41.25 55C41.25 51.55 38.45 48.75 35 48.75ZM65 48.75C61.55 48.75 58.75 51.55 58.75 55C58.75 58.45 61.55 61.25 65 61.25C68.45 61.25 71.25 58.45 71.25 55C71.25 51.55 68.45 48.75 65 48.75ZM50 0C22.4 0 0 22.4 0 50C0 77.6 22.4 100 50 100C77.6 100 100 77.6 100 50C100 22.4 77.6 0 50 0ZM50 90C27.95 90 10 72.05 10 50C10 48.55 10.1 47.1 10.25 45.7C22.05 40.45 31.4 30.8 36.3 18.85C45.35 31.65 60.25 40 77.1 40C81 40 84.75 39.55 88.35 38.7C89.4 42.25 90 46.05 90 50C90 72.05 72.05 90 50 90Z" fill="#404040"/>
</svg>
